<mxfile host="app.diagrams.net" agent="Mozilla/5.0 (Windows NT 10.0; Win64; x64) AppleWebKit/537.36 (KHTML, like Gecko) Chrome/129.0.0.0 Safari/537.36" version="24.7.16">
  <diagram name="Page-1" id="SBNDKTTEdVOXE4RD1kLH">
    <mxGraphModel dx="696" dy="368" grid="1" gridSize="10" guides="1" tooltips="1" connect="1" arrows="1" fold="1" page="1" pageScale="1" pageWidth="850" pageHeight="1100" math="0" shadow="0">
      <root>
        <mxCell id="0" />
        <mxCell id="1" parent="0" />
        <mxCell id="36Wj5U354HoHek48pkDs-14" value="" style="edgeStyle=orthogonalEdgeStyle;rounded=0;orthogonalLoop=1;jettySize=auto;html=1;" edge="1" parent="1" source="36Wj5U354HoHek48pkDs-1" target="36Wj5U354HoHek48pkDs-13">
          <mxGeometry relative="1" as="geometry" />
        </mxCell>
        <mxCell id="36Wj5U354HoHek48pkDs-1" value="User" style="shape=umlActor;verticalLabelPosition=bottom;verticalAlign=top;html=1;outlineConnect=0;" vertex="1" parent="1">
          <mxGeometry x="140" y="40" width="30" height="60" as="geometry" />
        </mxCell>
        <mxCell id="36Wj5U354HoHek48pkDs-4" value="Sign Up" style="text;html=1;align=center;verticalAlign=middle;resizable=0;points=[];autosize=1;strokeColor=none;fillColor=none;" vertex="1" parent="1">
          <mxGeometry x="30" y="55" width="70" height="30" as="geometry" />
        </mxCell>
        <mxCell id="36Wj5U354HoHek48pkDs-23" value="" style="edgeStyle=orthogonalEdgeStyle;rounded=0;orthogonalLoop=1;jettySize=auto;html=1;" edge="1" parent="1" source="36Wj5U354HoHek48pkDs-10" target="36Wj5U354HoHek48pkDs-22">
          <mxGeometry relative="1" as="geometry" />
        </mxCell>
        <mxCell id="36Wj5U354HoHek48pkDs-24" value="No" style="edgeLabel;html=1;align=center;verticalAlign=middle;resizable=0;points=[];" vertex="1" connectable="0" parent="36Wj5U354HoHek48pkDs-23">
          <mxGeometry x="-0.24" y="-1" relative="1" as="geometry">
            <mxPoint as="offset" />
          </mxGeometry>
        </mxCell>
        <mxCell id="36Wj5U354HoHek48pkDs-25" value="Yes" style="edgeStyle=orthogonalEdgeStyle;rounded=0;orthogonalLoop=1;jettySize=auto;html=1;exitX=0.5;exitY=1;exitDx=0;exitDy=0;entryX=0.5;entryY=0;entryDx=0;entryDy=0;" edge="1" parent="1" source="36Wj5U354HoHek48pkDs-10" target="36Wj5U354HoHek48pkDs-16">
          <mxGeometry relative="1" as="geometry" />
        </mxCell>
        <mxCell id="36Wj5U354HoHek48pkDs-10" value="&lt;div&gt;&lt;br&gt;&lt;/div&gt;Check&amp;nbsp;&lt;span style=&quot;background-color: initial;&quot;&gt;if an&amp;nbsp;&lt;/span&gt;&lt;div&gt;&lt;div&gt;account&amp;nbsp;&lt;span style=&quot;background-color: initial;&quot;&gt;for the&lt;/span&gt;&lt;/div&gt;&lt;div&gt;&lt;span style=&quot;background-color: initial;&quot;&gt;user exists&lt;/span&gt;&lt;/div&gt;&lt;/div&gt;" style="rhombus;whiteSpace=wrap;html=1;verticalAlign=top;" vertex="1" parent="1">
          <mxGeometry x="360" y="30" width="130" height="80" as="geometry" />
        </mxCell>
        <mxCell id="36Wj5U354HoHek48pkDs-15" style="edgeStyle=orthogonalEdgeStyle;rounded=0;orthogonalLoop=1;jettySize=auto;html=1;exitX=1;exitY=0.5;exitDx=0;exitDy=0;entryX=0;entryY=0.5;entryDx=0;entryDy=0;" edge="1" parent="1" source="36Wj5U354HoHek48pkDs-13" target="36Wj5U354HoHek48pkDs-10">
          <mxGeometry relative="1" as="geometry">
            <mxPoint x="360" y="70" as="targetPoint" />
          </mxGeometry>
        </mxCell>
        <mxCell id="36Wj5U354HoHek48pkDs-13" value="New user&lt;div&gt;information&lt;/div&gt;&lt;div&gt;input&lt;/div&gt;" style="shape=parallelogram;perimeter=parallelogramPerimeter;whiteSpace=wrap;html=1;fixedSize=1;verticalAlign=top;" vertex="1" parent="1">
          <mxGeometry x="205" y="40" width="120" height="60" as="geometry" />
        </mxCell>
        <mxCell id="36Wj5U354HoHek48pkDs-20" style="edgeStyle=orthogonalEdgeStyle;rounded=0;orthogonalLoop=1;jettySize=auto;html=1;exitX=0;exitY=0.5;exitDx=0;exitDy=0;" edge="1" parent="1" source="36Wj5U354HoHek48pkDs-16">
          <mxGeometry relative="1" as="geometry">
            <mxPoint x="150" y="130" as="targetPoint" />
          </mxGeometry>
        </mxCell>
        <mxCell id="36Wj5U354HoHek48pkDs-16" value="&lt;div&gt;&lt;span style=&quot;background-color: initial;&quot;&gt;Account creation denied&lt;/span&gt;&lt;br&gt;&lt;/div&gt;" style="whiteSpace=wrap;html=1;verticalAlign=top;" vertex="1" parent="1">
          <mxGeometry x="365" y="150" width="120" height="40" as="geometry" />
        </mxCell>
        <mxCell id="36Wj5U354HoHek48pkDs-19" style="edgeStyle=orthogonalEdgeStyle;rounded=0;orthogonalLoop=1;jettySize=auto;html=1;exitX=0.5;exitY=1;exitDx=0;exitDy=0;" edge="1" parent="1" source="36Wj5U354HoHek48pkDs-16" target="36Wj5U354HoHek48pkDs-16">
          <mxGeometry relative="1" as="geometry" />
        </mxCell>
        <mxCell id="36Wj5U354HoHek48pkDs-22" value="&lt;div&gt;&lt;br&gt;&lt;/div&gt;&lt;div&gt;Create user&#39;s account&lt;/div&gt;" style="ellipse;whiteSpace=wrap;html=1;verticalAlign=top;" vertex="1" parent="1">
          <mxGeometry x="550" y="40" width="140" height="60" as="geometry" />
        </mxCell>
      </root>
    </mxGraphModel>
  </diagram>
</mxfile>
